<svg xmlns="http://www.w3.org/2000/svg" xmlns:xlink="http://www.w3.org/1999/xlink" width="400" zoomAndPan="magnify" viewBox="0 0 300 149.999998" height="200" preserveAspectRatio="xMidYMid meet" version="1.0"><defs><g/><clipPath id="e1d20a922d"><path d="M 23.023438 42.851562 L 87.226562 42.851562 L 87.226562 107.050781 L 23.023438 107.050781 Z M 23.023438 42.851562 " clip-rule="nonzero"/></clipPath><clipPath id="634d4037b0"><path d="M 55.125 42.851562 C 37.394531 42.851562 23.023438 57.222656 23.023438 74.949219 C 23.023438 92.679688 37.394531 107.050781 55.125 107.050781 C 72.855469 107.050781 87.226562 92.679688 87.226562 74.949219 C 87.226562 57.222656 72.855469 42.851562 55.125 42.851562 Z M 55.125 42.851562 " clip-rule="nonzero"/></clipPath><clipPath id="258dfe9754"><path d="M 47.613281 54.722656 L 62.636719 54.722656 L 62.636719 69.746094 L 47.613281 69.746094 Z M 47.613281 54.722656 " clip-rule="nonzero"/></clipPath><clipPath id="9b4cc93120"><path d="M 55.125 54.722656 L 56.582031 56.792969 L 58.878906 55.730469 L 59.105469 58.25 L 61.628906 58.480469 L 60.566406 60.777344 L 62.636719 62.234375 L 60.566406 63.691406 L 61.628906 65.988281 L 59.105469 66.21875 L 58.878906 68.738281 L 56.582031 67.675781 L 55.125 69.746094 L 53.667969 67.675781 L 51.371094 68.738281 L 51.144531 66.21875 L 48.621094 65.988281 L 49.683594 63.691406 L 47.613281 62.234375 L 49.683594 60.777344 L 48.621094 58.480469 L 51.144531 58.25 L 51.371094 55.730469 L 53.667969 56.792969 Z M 55.125 54.722656 " clip-rule="nonzero"/></clipPath></defs><g clip-path="url(#e1d20a922d)"><g clip-path="url(#634d4037b0)"><path stroke-linecap="butt" transform="matrix(0.1605, 0, 0, 0.1605, 23.025001, 42.850447)" fill="none" stroke-linejoin="miter" d="M 200.000007 0.00695202 C 89.529789 0.00695202 -0.00974241 89.546484 -0.00974241 199.992364 C -0.00974241 310.462582 89.529789 400.002114 200.000007 400.002114 C 310.470226 400.002114 400.009757 310.462582 400.009757 199.992364 C 400.009757 89.546484 310.470226 0.00695202 200.000007 0.00695202 Z M 200.000007 0.00695202 " stroke="#0891b2" stroke-width="48" stroke-opacity="1" stroke-miterlimit="4"/></g></g><g clip-path="url(#258dfe9754)"><g clip-path="url(#9b4cc93120)"><path fill="#0891b2" d="M 47.613281 54.722656 L 62.636719 54.722656 L 62.636719 69.746094 L 47.613281 69.746094 Z M 47.613281 54.722656 " fill-opacity="1" fill-rule="nonzero"/></g></g><path stroke-linecap="butt" transform="matrix(0.1605, -0.00000000000000004, 0.00000000000000004, 0.1605, 35.774792, 96.017149)" fill="none" stroke-linejoin="miter" d="M -0.00843684 11.989141 L 241.132547 11.989141 " stroke="#0891b2" stroke-width="24" stroke-opacity="1" stroke-miterlimit="4"/><path stroke-linecap="butt" transform="matrix(0.1605, 0, 0, 0.1605, 25.138386, 74.950442)" fill="none" stroke-linejoin="miter" d="M -0.0103883 11.991014 L 372.726204 11.991014 " stroke="#0891b2" stroke-width="24" stroke-opacity="1" stroke-miterlimit="4"/><path stroke-linecap="butt" transform="matrix(0.1605, 0.000000000000000027, -0.000000000000000027, 0.1605, 27.062729, 85.42414)" fill="none" stroke-linejoin="miter" d="M -0.0014283 12.008862 L 343.918963 12.008862 " stroke="#0891b2" stroke-width="24" stroke-opacity="1" stroke-miterlimit="4"/><path stroke-linecap="butt" transform="matrix(0.1605, 0, 0, 0.1605, 25.138386, 80.187295)" fill="none" stroke-linejoin="miter" d="M -0.0103883 11.999916 L 372.726204 11.999916 " stroke="#0891b2" stroke-width="24" stroke-opacity="1" stroke-miterlimit="4"/><path stroke-linecap="butt" transform="matrix(0.1605, 0.00000000000000006, -0.00000000000000006, 0.1605, 30.588884, 90.720642)" fill="none" stroke-linejoin="miter" d="M 0.00597729 11.986848 L 304.790852 11.986848 " stroke="#0891b2" stroke-width="24" stroke-opacity="1" stroke-miterlimit="4"/><path stroke-linecap="butt" transform="matrix(0.1605, 0, 0, 0.1605, 44.238835, 101.313644)" fill="none" stroke-linejoin="miter" d="M -0.0034509 11.99151 L 136.386746 11.99151 " stroke="#0891b2" stroke-width="24" stroke-opacity="1" stroke-miterlimit="4"/><g fill="#0891b2" fill-opacity="1"><g transform="translate(100.13985, 99.374996)"><g><path d="M 28.171875 -14.9375 L 28.171875 -36.546875 L 33.78125 -36.546875 L 33.78125 0 L 28.171875 0 L 28.171875 -6.1875 L 27.796875 -6.1875 C 26.929688 -4.332031 25.59375 -2.757812 23.78125 -1.46875 C 21.976562 -0.175781 19.695312 0.46875 16.9375 0.46875 C 13.507812 0.46875 10.6875 -0.660156 8.46875 -2.921875 C 6.25 -5.191406 5.140625 -8.660156 5.140625 -13.328125 L 5.140625 -36.546875 L 10.75 -36.546875 L 10.75 -13.703125 C 10.75 -11.035156 11.5 -8.910156 13 -7.328125 C 14.5 -5.742188 16.414062 -4.953125 18.75 -4.953125 C 20.144531 -4.953125 21.566406 -5.304688 23.015625 -6.015625 C 24.472656 -6.734375 25.695312 -7.828125 26.6875 -9.296875 C 27.675781 -10.773438 28.171875 -12.65625 28.171875 -14.9375 Z M 28.171875 -14.9375 "/></g></g></g><g fill="#0891b2" fill-opacity="1"><g transform="translate(136.248057, 99.374996)"><g><path d="M 10.75 -21.984375 L 10.75 0 L 5.140625 0 L 5.140625 -36.546875 L 10.5625 -36.546875 L 10.5625 -30.828125 L 11.046875 -30.828125 C 11.898438 -32.691406 13.195312 -34.1875 14.9375 -35.3125 C 16.6875 -36.445312 18.941406 -37.015625 21.703125 -37.015625 C 25.398438 -37.015625 28.382812 -35.878906 30.65625 -33.609375 C 32.9375 -31.347656 34.078125 -27.882812 34.078125 -23.21875 L 34.078125 0 L 28.453125 0 L 28.453125 -22.84375 C 28.453125 -25.707031 27.707031 -27.945312 26.21875 -29.5625 C 24.726562 -31.175781 22.679688 -31.984375 20.078125 -31.984375 C 17.398438 -31.984375 15.175781 -31.113281 13.40625 -29.375 C 11.632812 -27.632812 10.75 -25.171875 10.75 -21.984375 Z M 10.75 -21.984375 "/></g></g></g><g fill="#0891b2" fill-opacity="1"><g transform="translate(172.64176, 99.374996)"><g><path d="M 20.46875 0.765625 C 16.9375 0.765625 13.898438 -0.015625 11.359375 -1.578125 C 8.816406 -3.140625 6.859375 -5.328125 5.484375 -8.140625 C 4.109375 -10.960938 3.421875 -14.242188 3.421875 -17.984375 C 3.421875 -21.734375 4.109375 -25.035156 5.484375 -27.890625 C 6.859375 -30.753906 8.773438 -32.988281 11.234375 -34.59375 C 13.703125 -36.207031 16.585938 -37.015625 19.890625 -37.015625 C 21.796875 -37.015625 23.675781 -36.695312 25.53125 -36.0625 C 27.382812 -35.4375 29.070312 -34.410156 30.59375 -32.984375 C 32.113281 -31.566406 33.328125 -29.691406 34.234375 -27.359375 C 35.140625 -25.023438 35.59375 -22.15625 35.59375 -18.75 L 35.59375 -16.375 L 9.0625 -16.375 C 9.1875 -12.46875 10.289062 -9.472656 12.375 -7.390625 C 14.46875 -5.316406 17.164062 -4.28125 20.46875 -4.28125 C 22.664062 -4.28125 24.554688 -4.753906 26.140625 -5.703125 C 27.734375 -6.660156 28.882812 -8.09375 29.59375 -10 L 35.015625 -8.46875 C 34.160156 -5.707031 32.445312 -3.476562 29.875 -1.78125 C 27.3125 -0.0820312 24.175781 0.765625 20.46875 0.765625 Z M 9.0625 -21.21875 L 29.890625 -21.21875 C 29.890625 -24.3125 28.984375 -26.878906 27.171875 -28.921875 C 25.359375 -30.960938 22.929688 -31.984375 19.890625 -31.984375 C 17.742188 -31.984375 15.882812 -31.484375 14.3125 -30.484375 C 12.75 -29.484375 11.515625 -28.160156 10.609375 -26.515625 C 9.703125 -24.867188 9.1875 -23.101562 9.0625 -21.21875 Z M 9.0625 -21.21875 "/></g></g></g><g fill="#0891b2" fill-opacity="1"><g transform="translate(207.893452, 99.374996)"><g><path d="M 9.328125 -36.546875 L 18.078125 -21.609375 L 26.84375 -36.546875 L 33.3125 -36.546875 L 21.515625 -18.265625 L 33.3125 0 L 26.84375 0 L 18.078125 -14.1875 L 9.328125 0 L 2.859375 0 L 14.46875 -18.265625 L 2.859375 -36.546875 Z M 9.328125 -36.546875 "/></g></g></g><g fill="#0891b2" fill-opacity="1"><g transform="translate(239.719217, 99.374996)"><g><path d="M 19.984375 0.765625 C 16.679688 0.765625 13.789062 -0.0195312 11.3125 -1.59375 C 8.832031 -3.164062 6.894531 -5.363281 5.5 -8.1875 C 4.113281 -11.007812 3.421875 -14.304688 3.421875 -18.078125 C 3.421875 -21.890625 4.113281 -25.210938 5.5 -28.046875 C 6.894531 -30.890625 8.832031 -33.09375 11.3125 -34.65625 C 13.789062 -36.226562 16.679688 -37.015625 19.984375 -37.015625 C 23.285156 -37.015625 26.175781 -36.226562 28.65625 -34.65625 C 31.132812 -33.09375 33.066406 -30.890625 34.453125 -28.046875 C 35.847656 -25.210938 36.546875 -21.890625 36.546875 -18.078125 C 36.546875 -14.304688 35.847656 -11.007812 34.453125 -8.1875 C 33.066406 -5.363281 31.132812 -3.164062 28.65625 -1.59375 C 26.175781 -0.0195312 23.285156 0.765625 19.984375 0.765625 Z M 19.984375 -4.28125 C 22.492188 -4.28125 24.554688 -4.921875 26.171875 -6.203125 C 27.785156 -7.492188 28.984375 -9.1875 29.765625 -11.28125 C 30.546875 -13.375 30.9375 -15.640625 30.9375 -18.078125 C 30.9375 -20.523438 30.546875 -22.800781 29.765625 -24.90625 C 28.984375 -27.019531 27.785156 -28.726562 26.171875 -30.03125 C 24.554688 -31.332031 22.492188 -31.984375 19.984375 -31.984375 C 17.472656 -31.984375 15.410156 -31.332031 13.796875 -30.03125 C 12.179688 -28.726562 10.984375 -27.019531 10.203125 -24.90625 C 9.429688 -22.800781 9.046875 -20.523438 9.046875 -18.078125 C 9.046875 -15.640625 9.429688 -13.375 10.203125 -11.28125 C 10.984375 -9.1875 12.179688 -7.492188 13.796875 -6.203125 C 15.410156 -4.921875 17.472656 -4.28125 19.984375 -4.28125 Z M 19.984375 -4.28125 "/></g></g></g></svg>