<svg xmlns="http://www.w3.org/2000/svg" xmlns:xlink="http://www.w3.org/1999/xlink" width="200" zoomAndPan="magnify" viewBox="0 0 150 74.999997" height="100" preserveAspectRatio="xMidYMid meet" version="1.0"><defs><g/><clipPath id="d482f11b17"><path d="M 97 27 L 147 27 L 147 50 L 97 50 Z M 97 27 " clip-rule="nonzero"/></clipPath><clipPath id="a96c70c9e4"><path d="M 121.917969 7.5 L 152.734375 38.316406 L 121.917969 69.136719 L 91.101562 38.316406 Z M 121.917969 7.5 " clip-rule="nonzero"/></clipPath><clipPath id="ca58852742"><path d="M 121.917969 7.5 L 152.734375 38.316406 L 121.917969 69.136719 L 91.101562 38.316406 Z M 121.917969 7.5 " clip-rule="nonzero"/></clipPath></defs><g fill="#000000" fill-opacity="1"><g transform="translate(2.637911, 48.797104)"><g><path d="M 23.34375 -8.515625 C 23.34375 -5.628906 22.425781 -3.425781 20.59375 -1.90625 C 18.769531 -0.382812 16.179688 0.375 12.828125 0.375 C 9.460938 0.375 6.863281 -0.382812 5.03125 -1.90625 C 3.195312 -3.425781 2.28125 -5.628906 2.28125 -8.515625 L 2.28125 -21.15625 L 9.078125 -21.15625 L 9.078125 -8.609375 C 9.078125 -7.421875 9.394531 -6.472656 10.03125 -5.765625 C 10.664062 -5.054688 11.585938 -4.703125 12.796875 -4.703125 C 14.003906 -4.703125 14.929688 -5.0625 15.578125 -5.78125 C 16.222656 -6.5 16.546875 -7.441406 16.546875 -8.609375 L 16.546875 -21.15625 L 23.34375 -21.15625 Z M 23.34375 -8.515625 "/></g></g></g><g fill="#000000" fill-opacity="1"><g transform="translate(28.242909, 48.797104)"><g><path d="M 17.40625 0 L 8.515625 -10.265625 L 8.515625 0 L 2.28125 0 L 2.28125 -21.15625 L 8.203125 -21.15625 L 17.09375 -10.734375 L 17.09375 -21.15625 L 23.34375 -21.15625 L 23.34375 0 Z M 17.40625 0 "/></g></g></g><g fill="#000000" fill-opacity="1"><g transform="translate(53.847906, 48.797104)"><g><path d="M 2.28125 -21.15625 L 20.578125 -21.15625 L 20.578125 -16.078125 L 9.078125 -16.078125 L 9.078125 -13.15625 L 18.90625 -13.15625 L 18.90625 -8.296875 L 9.078125 -8.296875 L 9.078125 -5.078125 L 20.78125 -5.078125 L 20.78125 0 L 2.28125 0 Z M 2.28125 -21.15625 "/></g></g></g><g fill="#000000" fill-opacity="1"><g transform="translate(76.040951, 48.797104)"><g><path d="M 23.921875 0 L 15.6875 0 L 11.78125 -6.578125 L 11.65625 -6.578125 L 7.75 0 L 0.125 0 L 7.6875 -11.1875 L 0.859375 -21.15625 L 9.078125 -21.15625 L 12.265625 -15.75 L 12.390625 -15.75 L 15.625 -21.15625 L 23.21875 -21.15625 L 16.359375 -11.15625 Z M 23.921875 0 "/></g></g></g><g clip-path="url(#d482f11b17)"><g clip-path="url(#a96c70c9e4)"><g clip-path="url(#ca58852742)"><path fill="#000000" d="M 135.621094 49.171875 L 124.660156 49.167969 C 118.609375 49.171875 113.699219 44.261719 113.703125 38.210938 C 113.699219 37.257812 113.863281 36.351562 114.089844 35.472656 L 119.179688 35.472656 C 119.425781 35.46875 119.644531 35.550781 119.871094 35.609375 C 119.445312 36.386719 119.179688 37.265625 119.179688 38.210938 C 119.179688 41.234375 121.640625 43.691406 124.660156 43.691406 L 135.617188 43.691406 C 138.640625 43.691406 141.097656 41.230469 141.097656 38.210938 C 141.097656 35.1875 138.640625 32.730469 135.621094 32.730469 L 131.71875 32.734375 C 130.753906 30.535156 129.21875 28.667969 127.316406 27.25 L 135.621094 27.25 C 141.671875 27.253906 146.578125 32.160156 146.578125 38.210938 C 146.578125 44.261719 141.671875 49.167969 135.621094 49.171875 Z M 112.121094 43.691406 L 108.222656 43.691406 C 105.199219 43.691406 102.742188 41.230469 102.742188 38.210938 C 102.742188 35.1875 105.199219 32.730469 108.222656 32.730469 L 119.179688 32.730469 C 122.203125 32.730469 124.660156 35.1875 124.660156 38.210938 C 124.660156 39.15625 124.398438 40.03125 123.976562 40.808594 C 124.203125 40.871094 124.417969 40.949219 124.660156 40.949219 L 129.753906 40.953125 C 129.980469 40.070312 130.140625 39.164062 130.140625 38.210938 C 130.140625 32.160156 125.234375 27.25 119.179688 27.25 L 108.222656 27.25 C 102.167969 27.253906 97.261719 32.160156 97.261719 38.210938 C 97.261719 44.261719 102.171875 49.167969 108.222656 49.171875 L 116.527344 49.171875 C 114.625 47.753906 113.085938 45.886719 112.121094 43.691406 Z M 112.121094 43.691406 " fill-opacity="1" fill-rule="nonzero"/></g></g></g></svg>