<svg xmlns="http://www.w3.org/2000/svg" xmlns:xlink="http://www.w3.org/1999/xlink" width="500" zoomAndPan="magnify" viewBox="0 0 375 374.999991" height="500" preserveAspectRatio="xMidYMid meet" version="1.0"><defs><clipPath id="da854e5f72"><path d="M 37.5 37.5 L 337.5 37.5 L 337.5 337.5 L 37.5 337.5 Z M 37.5 37.5 " clip-rule="nonzero"/></clipPath><clipPath id="0bc964abce"><path d="M 187.5 37.5 C 104.65625 37.5 37.5 104.65625 37.5 187.5 C 37.5 270.34375 104.65625 337.5 187.5 337.5 C 270.34375 337.5 337.5 270.34375 337.5 187.5 C 337.5 104.65625 270.34375 37.5 187.5 37.5 Z M 187.5 37.5 " clip-rule="nonzero"/></clipPath><clipPath id="3d04d65a5a"><path d="M 152.40625 92.984375 L 222.59375 92.984375 L 222.59375 163.171875 L 152.40625 163.171875 Z M 152.40625 92.984375 " clip-rule="nonzero"/></clipPath><clipPath id="9f7243c5fc"><path d="M 187.5 92.984375 L 194.3125 102.65625 L 205.046875 97.6875 L 206.109375 109.46875 L 217.890625 110.53125 L 212.921875 121.265625 L 222.59375 128.078125 L 212.921875 134.890625 L 217.890625 145.625 L 206.109375 146.691406 L 205.046875 158.472656 L 194.3125 153.503906 L 187.5 163.171875 L 180.6875 153.503906 L 169.953125 158.472656 L 168.890625 146.691406 L 157.109375 145.625 L 162.078125 134.890625 L 152.40625 128.078125 L 162.078125 121.265625 L 157.109375 110.53125 L 168.890625 109.46875 L 169.953125 97.6875 L 180.6875 102.65625 Z M 187.5 92.984375 " clip-rule="nonzero"/></clipPath></defs><g clip-path="url(#da854e5f72)"><g clip-path="url(#0bc964abce)"><path stroke-linecap="butt" transform="matrix(0.75, 0, 0, 0.75, 37.500002, 37.499998)" fill="none" stroke-linejoin="miter" d="M 200.00001 0.00000328333 C 89.54167 0.00000328333 -0.00000271667 89.541676 -0.00000271667 200.000016 C -0.00000271667 310.458357 89.54167 400.00003 200.00001 400.00003 C 310.458351 400.00003 400.000024 310.458357 400.000024 200.000016 C 400.000024 89.541676 310.458351 0.00000328333 200.00001 0.00000328333 Z M 200.00001 0.00000328333 " stroke="#000000" stroke-width="48" stroke-opacity="1" stroke-miterlimit="4"/></g></g><g clip-path="url(#3d04d65a5a)"><g clip-path="url(#9f7243c5fc)"><path fill="#000000" d="M 152.40625 92.984375 L 222.59375 92.984375 L 222.59375 163.171875 L 152.40625 163.171875 Z M 152.40625 92.984375 " fill-opacity="1" fill-rule="nonzero"/></g></g><path stroke-linecap="butt" transform="matrix(0.75, -0.000000000000000186, 0.000000000000000186, 0.75, 97.078467, 285.942521)" fill="none" stroke-linejoin="miter" d="M -0.0004559 11.998514 L 241.12456 11.998514 " stroke="#000000" stroke-width="24" stroke-opacity="1" stroke-miterlimit="4"/><path stroke-linecap="butt" transform="matrix(0.75, 0, 0, 0.75, 47.375629, 187.499988)" fill="none" stroke-linejoin="miter" d="M -0.000839185 12.000017 L 372.723144 12.000017 " stroke="#000000" stroke-width="24" stroke-opacity="1" stroke-miterlimit="4"/><path stroke-linecap="butt" transform="matrix(0.75, 0.000000000000000124, -0.000000000000000124, 0.75, 56.367898, 236.442524)" fill="none" stroke-linejoin="miter" d="M -0.000947865 11.99851 L 343.915741 11.99851 " stroke="#000000" stroke-width="24" stroke-opacity="1" stroke-miterlimit="4"/><path stroke-linecap="butt" transform="matrix(0.75, 0, 0, 0.75, 47.375629, 211.971255)" fill="none" stroke-linejoin="miter" d="M -0.000839185 12.001869 L 372.723144 12.001869 " stroke="#000000" stroke-width="24" stroke-opacity="1" stroke-miterlimit="4"/><path stroke-linecap="butt" transform="matrix(0.75, 0.00000000000000028, -0.00000000000000028, 0.75, 72.845251, 261.192523)" fill="none" stroke-linejoin="miter" d="M -0.00200122 11.998512 L 304.800102 11.998512 " stroke="#000000" stroke-width="24" stroke-opacity="1" stroke-miterlimit="4"/><path stroke-linecap="butt" transform="matrix(0.75, 0, 0, 0.75, 136.630073, 310.69252)" fill="none" stroke-linejoin="miter" d="M -0.00155584 11.998516 L 136.394286 11.998516 " stroke="#000000" stroke-width="24" stroke-opacity="1" stroke-miterlimit="4"/></svg>